<?xml version="1.0" standalone="no"?>
<!DOCTYPE svg PUBLIC "-//W3C//DTD SVG 20010904//EN"
 "http://www.w3.org/TR/2001/REC-SVG-20010904/DTD/svg10.dtd">
<svg version="1.0" xmlns="http://www.w3.org/2000/svg"
 width="512.000000pt" height="512.000000pt" viewBox="0 0 512.000000 512.000000"
 preserveAspectRatio="xMidYMid meet">

<g transform="translate(0.000000,512.000000) scale(0.100000,-0.100000)"
fill="#000000" stroke="none">
<path d="M1750 4625 c-8 -2 -49 -9 -90 -15 -110 -18 -299 -83 -408 -140 -134
-71 -242 -150 -352 -260 -200 -201 -331 -442 -395 -730 -26 -117 -31 -371 -11
-505 20 -130 78 -309 136 -425 199 -397 560 -673 1000 -767 147 -31 385 -36
525 -10 211 38 408 118 572 230 l83 56 567 -555 c313 -306 582 -565 598 -575
45 -28 121 -26 168 6 20 14 44 39 52 55 19 37 19 113 1 149 -8 15 -271 278
-585 585 -314 307 -571 559 -571 561 0 2 25 38 55 81 112 156 201 368 242 579
26 136 23 387 -6 525 -64 300 -186 526 -400 741 -206 206 -435 331 -721 394
-68 15 -416 31 -460 20z m389 -335 c414 -84 740 -386 856 -793 108 -380 8
-785 -265 -1071 -196 -205 -414 -313 -704 -347 -391 -46 -815 155 -1038 491
-139 209 -196 416 -185 673 16 409 244 764 612 950 87 44 208 85 300 102 111
21 310 18 424 -5z"/>
</g>
</svg>
